{"accessors":[{"bufferView":0,"byteOffset":0,"componentType":5126,"count":4,"max":[-0.022497902,0.02,-0.071489897925759],"min":[-0.032497536933530004,0.0,-0.071560584316321],"type":"VEC3"},{"bufferView":0,"byteOffset":48,"componentType":5126,"count":18,"max":[-0.032497536933530004,0.02,-0.049553132912528],"min":[-0.048876233201670234,0.0,-0.071489897925759],"type":"VEC3"},{"bufferView":0,"byteOffset":264,"componentType":5126,"count":8,"max":[-0.022497902,0.02,-0.06498917474558],"min":[-0.022497902,0.0,-0.071560584316321],"type":"VEC3"},{"bufferView":0,"byteOffset":360,"componentType":5126,"count":40,"max":[-0.022497902,3.8458125573020003e-16,3.058808159994e-31],"min":[-0.048876233201670234,-1.377564728955e-15,-0.071560584316321],"type":"VEC3"},{"bufferView":0,"byteOffset":840,"componentType":5126,"count":40,"max":[-0.022497902,0.020000000000001,-2.22044604925e-18],"min":[-0.048876233201670234,0.02,-0.071560584316321],"type":"VEC3"},{"bufferView":0,"byteOffset":1320,"componentType":5126,"count":4,"max":[-0.039570261163460005,0.02,-0.028777862432801],"min":[-0.04805272823187,0.0,-0.049553132912528],"type":"VEC3"},{"bufferView":0,"byteOffset":1368,"componentType":5126,"count":4,"max":[-0.022497902,0.02,-0.06498917474558],"min":[-0.032497536933530004,0.0,-0.06498917474558],"type":"VEC3"},{"bufferView":0,"byteOffset":1416,"componentType":5126,"count":4,"max":[-0.012497902,0.0009986345,-0.066775196],"min":[-0.022497902,0.0009986345,-0.069775196],"type":"VEC3"},{"bufferView":0,"byteOffset":1464,"componentType":5126,"count":4,"max":[-0.012497902,0.0189986345,-0.069775196],"min":[-0.022497902,0.0009986345,-0.069775196],"type":"VEC3"},{"bufferView":0,"byteOffset":1512,"componentType":5126,"count":4,"max":[-0.012497902,0.0189986345,-0.066775196],"min":[-0.022497902,0.0189986345,-0.069775196],"type":"VEC3"},{"bufferView":0,"byteOffset":1560,"componentType":5126,"count":30,"max":[-0.012497902,0.0189986345,-0.066775196],"min":[-0.022497902,0.0009986345,-0.066775196],"type":"VEC3"},{"bufferView":0,"byteOffset":1920,"componentType":5126,"count":18,"max":[-0.032497536933530004,0.02,-0.051827424134352],"min":[-0.042431540534107866,0.0,-0.06498917474558],"type":"VEC3"},{"bufferView":0,"byteOffset":2136,"componentType":5126,"count":4,"max":[-0.03407568835849,0.02,-0.032635296667248],"min":[-0.04198478016139,0.0,-0.051827424134352],"type":"VEC3"},{"bufferView":0,"byteOffset":2184,"componentType":5126,"count":16,"max":[-0.03215923659370226,0.02,-0.004061966853093],"min":[-0.041304359,0.0,-0.032635296667248],"type":"VEC3"},{"bufferView":0,"byteOffset":2376,"componentType":5126,"count":4,"max":[-0.041304359,0.02,-0.004],"min":[-0.041304359,0.0,-0.004061966853093],"type":"VEC3"},{"bufferView":0,"byteOffset":2424,"componentType":5126,"count":7,"max":[-0.041304359,0.02,-0.003999999999999998],"min":[-0.0425,-1.7763568394e-18,-0.004000000000000001],"type":"VEC3"},{"bufferView":0,"byteOffset":2508,"componentType":5126,"count":10,"max":[-0.04130677910464,0.02,-8.539419299017001e-32],"min":[-0.0425,-1.7763568394e-18,-0.004000000000000001],"type":"VEC3"},{"bufferView":0,"byteOffset":2628,"componentType":5126,"count":17,"max":[-0.04130677910464,0.020000000000001,3.058808159994e-31],"min":[-0.04880078524388681,-1.377564728955e-15,-4.185352411884e-18],"type":"VEC3"},{"bufferView":0,"byteOffset":2832,"componentType":5126,"count":8,"max":[-0.04788286127027,0.020000000000001,3.058808159994e-31],"min":[-0.04880078524388683,-1.377564728955e-15,-0.009542420791126001],"type":"VEC3"},{"bufferView":0,"byteOffset":2928,"componentType":5126,"count":6,"max":[-0.04480981774085,0.02,-0.009542420791126001],"min":[-0.04880078524388683,0.0,-0.009542420791126001],"type":"VEC3"},{"bufferView":0,"byteOffset":3000,"componentType":5126,"count":14,"max":[-0.038674027734245574,0.02,-0.009542420791126001],"min":[-0.04480981774085,0.0,-0.028777862432801],"type":"VEC3"},{"bufferView":0,"byteOffset":3168,"componentType":5126,"count":4,"max":[-0.012497902,0.0189986345,-0.066775196],"min":[-0.012497902,0.0009986345,-0.069775196],"type":"VEC3"},{"bufferView":0,"byteOffset":3216,"componentType":5126,"count":54,"max":[-0.015995531,0.01148490131114708,-0.06427519599999999],"min":[-0.018995531,0.008506774688852917,-0.066775196],"type":"VEC3"},{"bufferView":0,"byteOffset":3864,"componentType":5126,"count":4,"max":[-0.04335614162517,0.018849151562574003,0.012],"min":[-0.04641395282264,0.018849151562574003,-4.185352411884e-18],"type":"VEC3"},{"bufferView":0,"byteOffset":3912,"componentType":5126,"count":8,"max":[-0.04335509695421,0.018849151562574003,0.012],"min":[-0.04415050032316252,0.001145731645672,-4.185352411884e-18],"type":"VEC3"},{"bufferView":0,"byteOffset":4008,"componentType":5126,"count":4,"max":[-0.04335509695421,0.001145731645672,0.012],"min":[-0.046412976977450005,0.001145731645671,-2.544035306134e-19],"type":"VEC3"},{"bufferView":0,"byteOffset":4056,"componentType":5126,"count":8,"max":[-0.046412976977450005,0.018849151562574003,0.012],"min":[-0.04715697017396444,0.001145731645671,-4.185352411884e-18],"type":"VEC3"},{"bufferView":0,"byteOffset":4152,"componentType":5126,"count":26,"max":[-0.015995531,0.01148490131114708,-0.06427519599999999],"min":[-0.018995531,0.008506774688852917,-0.06427519599999999],"type":"VEC3"},{"bufferView":0,"byteOffset":4464,"componentType":5126,"count":8,"max":[-0.04335509695421,0.018849151562574003,0.012],"min":[-0.04715697017396444,0.001145731645671,0.012],"type":"VEC3"},{"bufferView":1,"byteOffset":0,"componentType":5126,"count":4,"type":"VEC3"},{"bufferView":1,"byteOffset":48,"componentType":5126,"count":18,"type":"VEC3"},{"bufferView":1,"byteOffset":264,"componentType":5126,"count":8,"type":"VEC3"},{"bufferView":1,"byteOffset":360,"componentType":5126,"count":40,"type":"VEC3"},{"bufferView":1,"byteOffset":840,"componentType":5126,"count":40,"type":"VEC3"},{"bufferView":1,"byteOffset":1320,"componentType":5126,"count":4,"type":"VEC3"},{"bufferView":1,"byteOffset":1368,"componentType":5126,"count":4,"type":"VEC3"},{"bufferView":1,"byteOffset":1416,"componentType":5126,"count":4,"type":"VEC3"},{"bufferView":1,"byteOffset":1464,"componentType":5126,"count":4,"type":"VEC3"},{"bufferView":1,"byteOffset":1512,"componentType":5126,"count":4,"type":"VEC3"},{"bufferView":1,"byteOffset":1560,"componentType":5126,"count":30,"type":"VEC3"},{"bufferView":1,"byteOffset":1920,"componentType":5126,"count":18,"type":"VEC3"},{"bufferView":1,"byteOffset":2136,"componentType":5126,"count":4,"type":"VEC3"},{"bufferView":1,"byteOffset":2184,"componentType":5126,"count":16,"type":"VEC3"},{"bufferView":1,"byteOffset":2376,"componentType":5126,"count":4,"type":"VEC3"},{"bufferView":1,"byteOffset":2424,"componentType":5126,"count":7,"type":"VEC3"},{"bufferView":1,"byteOffset":2508,"componentType":5126,"count":10,"type":"VEC3"},{"bufferView":1,"byteOffset":2628,"componentType":5126,"count":17,"type":"VEC3"},{"bufferView":1,"byteOffset":2832,"componentType":5126,"count":8,"type":"VEC3"},{"bufferView":1,"byteOffset":2928,"componentType":5126,"count":6,"type":"VEC3"},{"bufferView":1,"byteOffset":3000,"componentType":5126,"count":14,"type":"VEC3"},{"bufferView":1,"byteOffset":3168,"componentType":5126,"count":4,"type":"VEC3"},{"bufferView":1,"byteOffset":3216,"componentType":5126,"count":54,"type":"VEC3"},{"bufferView":1,"byteOffset":3864,"componentType":5126,"count":4,"type":"VEC3"},{"bufferView":1,"byteOffset":3912,"componentType":5126,"count":8,"type":"VEC3"},{"bufferView":1,"byteOffset":4008,"componentType":5126,"count":4,"type":"VEC3"},{"bufferView":1,"byteOffset":4056,"componentType":5126,"count":8,"type":"VEC3"},{"bufferView":1,"byteOffset":4152,"componentType":5126,"count":26,"type":"VEC3"},{"bufferView":1,"byteOffset":4464,"componentType":5126,"count":8,"type":"VEC3"},{"bufferView":2,"byteOffset":0,"componentType":5123,"count":6,"type":"SCALAR"},{"bufferView":2,"byteOffset":12,"componentType":5123,"count":48,"type":"SCALAR"},{"bufferView":2,"byteOffset":108,"componentType":5123,"count":24,"type":"SCALAR"},{"bufferView":2,"byteOffset":156,"componentType":5123,"count":114,"type":"SCALAR"},{"bufferView":2,"byteOffset":384,"componentType":5123,"count":114,"type":"SCALAR"},{"bufferView":2,"byteOffset":612,"componentType":5123,"count":6,"type":"SCALAR"},{"bufferView":2,"byteOffset":624,"componentType":5123,"count":6,"type":"SCALAR"},{"bufferView":2,"byteOffset":636,"componentType":5123,"count":6,"type":"SCALAR"},{"bufferView":2,"byteOffset":648,"componentType":5123,"count":6,"type":"SCALAR"},{"bufferView":2,"byteOffset":660,"componentType":5123,"count":6,"type":"SCALAR"},{"bufferView":2,"byteOffset":672,"componentType":5123,"count":90,"type":"SCALAR"},{"bufferView":2,"byteOffset":852,"componentType":5123,"count":48,"type":"SCALAR"},{"bufferView":2,"byteOffset":948,"componentType":5123,"count":6,"type":"SCALAR"},{"bufferView":2,"byteOffset":960,"componentType":5123,"count":42,"type":"SCALAR"},{"bufferView":2,"byteOffset":1044,"componentType":5123,"count":6,"type":"SCALAR"},{"bufferView":2,"byteOffset":1056,"componentType":5123,"count":15,"type":"SCALAR"},{"bufferView":2,"byteOffset":1088,"componentType":5123,"count":24,"type":"SCALAR"},{"bufferView":2,"byteOffset":1136,"componentType":5123,"count":51,"type":"SCALAR"},{"bufferView":2,"byteOffset":1240,"componentType":5123,"count":18,"type":"SCALAR"},{"bufferView":2,"byteOffset":1276,"componentType":5123,"count":12,"type":"SCALAR"},{"bufferView":2,"byteOffset":1300,"componentType":5123,"count":36,"type":"SCALAR"},{"bufferView":2,"byteOffset":1372,"componentType":5123,"count":6,"type":"SCALAR"},{"bufferView":2,"byteOffset":1384,"componentType":5123,"count":156,"type":"SCALAR"},{"bufferView":2,"byteOffset":1696,"componentType":5123,"count":6,"type":"SCALAR"},{"bufferView":2,"byteOffset":1708,"componentType":5123,"count":18,"type":"SCALAR"},{"bufferView":2,"byteOffset":1744,"componentType":5123,"count":6,"type":"SCALAR"},{"bufferView":2,"byteOffset":1756,"componentType":5123,"count":18,"type":"SCALAR"},{"bufferView":2,"byteOffset":1792,"componentType":5123,"count":72,"type":"SCALAR"},{"bufferView":2,"byteOffset":1936,"componentType":5123,"count":18,"type":"SCALAR"}],"asset":{"generator":"Open CASCADE Technology 7.8 [dev.opencascade.org]","version":"2.0"},"bufferViews":[{"buffer":0,"byteLength":4560,"byteOffset":0,"byteStride":12,"target":34962},{"buffer":0,"byteLength":4560,"byteOffset":4560,"byteStride":12,"target":34962},{"buffer":0,"byteLength":1972,"byteOffset":9120,"target":34963}],"buffers":[{"byteLength":11092,"uri":"One Arm Druckdatei.bin"}],"materials":[{"name":"mat_0","pbrMetallicRoughness":{"baseColorFactor":[0.41788509488105774,0.4620770215988159,0.5088813304901123,1.0]},"doubleSided":true}],"meshes":[{"name":"Pad003","primitives":[{"attributes":{"NORMAL":29,"POSITION":0},"indices":58,"material":0,"mode":4},{"attributes":{"NORMAL":30,"POSITION":1},"indices":59,"material":0,"mode":4},{"attributes":{"NORMAL":31,"POSITION":2},"indices":60,"material":0,"mode":4},{"attributes":{"NORMAL":32,"POSITION":3},"indices":61,"material":0,"mode":4},{"attributes":{"NORMAL":33,"POSITION":4},"indices":62,"material":0,"mode":4},{"attributes":{"NORMAL":34,"POSITION":5},"indices":63,"material":0,"mode":4},{"attributes":{"NORMAL":35,"POSITION":6},"indices":64,"material":0,"mode":4},{"attributes":{"NORMAL":36,"POSITION":7},"indices":65,"material":0,"mode":4},{"attributes":{"NORMAL":37,"POSITION":8},"indices":66,"material":0,"mode":4},{"attributes":{"NORMAL":38,"POSITION":9},"indices":67,"material":0,"mode":4},{"attributes":{"NORMAL":39,"POSITION":10},"indices":68,"material":0,"mode":4},{"attributes":{"NORMAL":40,"POSITION":11},"indices":69,"material":0,"mode":4},{"attributes":{"NORMAL":41,"POSITION":12},"indices":70,"material":0,"mode":4},{"attributes":{"NORMAL":42,"POSITION":13},"indices":71,"material":0,"mode":4},{"attributes":{"NORMAL":43,"POSITION":14},"indices":72,"material":0,"mode":4},{"attributes":{"NORMAL":44,"POSITION":15},"indices":73,"material":0,"mode":4},{"attributes":{"NORMAL":45,"POSITION":16},"indices":74,"material":0,"mode":4},{"attributes":{"NORMAL":46,"POSITION":17},"indices":75,"material":0,"mode":4},{"attributes":{"NORMAL":47,"POSITION":18},"indices":76,"material":0,"mode":4},{"attributes":{"NORMAL":48,"POSITION":19},"indices":77,"material":0,"mode":4},{"attributes":{"NORMAL":49,"POSITION":20},"indices":78,"material":0,"mode":4},{"attributes":{"NORMAL":50,"POSITION":21},"indices":79,"material":0,"mode":4},{"attributes":{"NORMAL":51,"POSITION":22},"indices":80,"material":0,"mode":4},{"attributes":{"NORMAL":52,"POSITION":23},"indices":81,"material":0,"mode":4},{"attributes":{"NORMAL":53,"POSITION":24},"indices":82,"material":0,"mode":4},{"attributes":{"NORMAL":54,"POSITION":25},"indices":83,"material":0,"mode":4},{"attributes":{"NORMAL":55,"POSITION":26},"indices":84,"material":0,"mode":4},{"attributes":{"NORMAL":56,"POSITION":27},"indices":85,"material":0,"mode":4},{"attributes":{"NORMAL":57,"POSITION":28},"indices":86,"material":0,"mode":4}]}],"nodes":[{"mesh":0,"name":"Pad003"}],"scene":0,"scenes":[{"nodes":[0]}]}