{"accessors":[{"bufferView":0,"byteOffset":0,"componentType":5126,"count":76,"max":[0.008023557,0.0,0.009999958],"min":[-0.022499985,0.0,-0.010019396],"type":"VEC3"},{"bufferView":0,"byteOffset":912,"componentType":5126,"count":48,"max":[0.004767389272429917,0.0,0.005059322800740924],"min":[-0.005022494064600771,-0.006500000000000001,-0.005059369517535732],"type":"VEC3"},{"bufferView":0,"byteOffset":1488,"componentType":5126,"count":12,"max":[0.005048627723888245,0.0,-0.001499334],"min":[0.0047660387747263866,-0.006500000000000001,-0.0016986191261650178],"type":"VEC3"},{"bufferView":0,"byteOffset":1632,"componentType":5126,"count":12,"max":[0.005050058295578775,0.0,0.0016948250833313586],"min":[0.004767389272429917,-0.006500000000000001,0.0014953149999999999],"type":"VEC3"},{"bufferView":0,"byteOffset":1776,"componentType":5126,"count":4,"max":[0.0058137841037039185,0.0,-0.0014993339999999395],"min":[0.005048627723888245,-0.006500000000000001,-0.0014993340000000028],"type":"VEC3"},{"bufferView":0,"byteOffset":1824,"componentType":5126,"count":4,"max":[0.005814819094246269,0.0,0.0014953150000000127],"min":[0.005050058295578775,-0.006500000000000001,0.0014953149999999999],"type":"VEC3"},{"bufferView":0,"byteOffset":1872,"componentType":5126,"count":8,"max":[0.0058137841037039185,0.0,-0.0014993339999999395],"min":[0.005813612306306278,-0.006500000000000001,-0.0015000000000000332],"type":"VEC3"},{"bufferView":0,"byteOffset":1968,"componentType":5126,"count":8,"max":[0.005814819094246269,0.0,0.001500000000000034],"min":[0.005813612306306278,-0.006500000000000001,0.001495315],"type":"VEC3"},{"bufferView":0,"byteOffset":2064,"componentType":5126,"count":4,"max":[0.0060235570000000006,0.0,-0.0014999999999999996],"min":[0.005813612306306278,-0.006500000000000001,-0.0015000000000000332],"type":"VEC3"},{"bufferView":0,"byteOffset":2112,"componentType":5126,"count":4,"max":[0.0060235570000000006,0.0,0.001500000000000034],"min":[0.005813612306306278,-0.006500000000000001,0.0014999999999999996],"type":"VEC3"},{"bufferView":0,"byteOffset":2160,"componentType":5126,"count":16,"max":[0.008023557,0.0,-0.0014999999999999996],"min":[0.0060235570000000006,-0.006500000000000001,-0.0034999999999999996],"type":"VEC3"},{"bufferView":0,"byteOffset":2352,"componentType":5126,"count":16,"max":[0.008023557,0.0,0.0034999999999999996],"min":[0.0060235570000000006,-0.006500000000000001,0.0014999999999999996],"type":"VEC3"},{"bufferView":0,"byteOffset":2544,"componentType":5126,"count":4,"max":[0.008023557,0.0,-0.0034999999999999996],"min":[0.008023557,-0.006500000000000001,-0.0050193960000000015],"type":"VEC3"},{"bufferView":0,"byteOffset":2592,"componentType":5126,"count":4,"max":[0.008023557,0.0,0.0049999580000000005],"min":[0.008023557,-0.006500000000000001,0.0034999999999999996],"type":"VEC3"},{"bufferView":0,"byteOffset":2640,"componentType":5126,"count":16,"max":[0.008023557,0.0,-0.0050193960000000015],"min":[0.0030235570000000014,-0.006500000000000001,-0.010019396],"type":"VEC3"},{"bufferView":0,"byteOffset":2832,"componentType":5126,"count":16,"max":[0.008023557,0.0,0.009999958],"min":[0.0030235570000000014,-0.006500000000000001,0.0049999580000000005],"type":"VEC3"},{"bufferView":0,"byteOffset":3024,"componentType":5126,"count":4,"max":[0.0030235570000000014,0.0,-0.010019396],"min":[-0.022499985,-0.006500000000000001,-0.010019396],"type":"VEC3"},{"bufferView":0,"byteOffset":3072,"componentType":5126,"count":4,"max":[0.0030235570000000014,0.0,0.009999958],"min":[-0.022499985,-0.006500000000000001,0.009999958],"type":"VEC3"},{"bufferView":0,"byteOffset":3120,"componentType":5126,"count":8,"max":[-0.022499985,0.0,0.009999958],"min":[-0.022499985,-0.006500000000000001,-0.010019396],"type":"VEC3"},{"bufferView":0,"byteOffset":3216,"componentType":5126,"count":102,"max":[0.008023557,-0.006500000000000001,0.009999958],"min":[-0.022499985,-0.006500000000000001,-0.010019396],"type":"VEC3"},{"bufferView":0,"byteOffset":4440,"componentType":5126,"count":4,"max":[-0.011499984999999999,-0.0016369860000000002,-0.009143652],"min":[-0.022499985,-0.004876096000000001,-0.009143652],"type":"VEC3"},{"bufferView":0,"byteOffset":4488,"componentType":5126,"count":30,"max":[-0.011499984999999999,-0.004876096000000001,0.009143779999999999],"min":[-0.022499985,-0.004876096000000001,-0.009143652],"type":"VEC3"},{"bufferView":0,"byteOffset":4848,"componentType":5126,"count":4,"max":[-0.011499984999999999,-0.0016369860000000002,0.009143779999999999],"min":[-0.022499985,-0.004876096000000001,0.009143779999999999],"type":"VEC3"},{"bufferView":0,"byteOffset":4896,"componentType":5126,"count":4,"max":[-0.011499984999999999,-0.0016369860000000002,0.009143779999999999],"min":[-0.022499985,-0.0016369860000000002,-0.009143652],"type":"VEC3"},{"bufferView":0,"byteOffset":4944,"componentType":5126,"count":54,"max":[-0.01582768,-0.004876096000000001,0.0017095151635269099],"min":[-0.019271822,-0.006500000000000001,-0.0017095151635269103],"type":"VEC3"},{"bufferView":0,"byteOffset":5592,"componentType":5126,"count":8,"max":[-0.011499984999999999,-0.0016369860000000002,0.009143779999999999],"min":[-0.011499984999999999,-0.004876096000000001,-0.009143652],"type":"VEC3"},{"bufferView":0,"byteOffset":5688,"componentType":5126,"count":4,"max":[-0.010499985,-0.00175,-0.009000000000000001],"min":[-0.011499984999999999,-0.00475,-0.009000000000000001],"type":"VEC3"},{"bufferView":0,"byteOffset":5736,"componentType":5126,"count":4,"max":[-0.010499985,-0.00175,0.009000000000000001],"min":[-0.011499984999999999,-0.00175,-0.009000000000000001],"type":"VEC3"},{"bufferView":0,"byteOffset":5784,"componentType":5126,"count":4,"max":[-0.010499985,-0.00175,0.009000000000000001],"min":[-0.011499984999999999,-0.00475,0.009000000000000001],"type":"VEC3"},{"bufferView":0,"byteOffset":5832,"componentType":5126,"count":4,"max":[-0.010499985,-0.00475,0.009000000000000001],"min":[-0.011499984999999999,-0.00475,-0.009000000000000001],"type":"VEC3"},{"bufferView":0,"byteOffset":5880,"componentType":5126,"count":4,"max":[-0.010499985,-0.00175,0.009000000000000001],"min":[-0.010499985,-0.00475,-0.009000000000000001],"type":"VEC3"},{"bufferView":1,"byteOffset":0,"componentType":5126,"count":76,"type":"VEC3"},{"bufferView":1,"byteOffset":912,"componentType":5126,"count":48,"type":"VEC3"},{"bufferView":1,"byteOffset":1488,"componentType":5126,"count":12,"type":"VEC3"},{"bufferView":1,"byteOffset":1632,"componentType":5126,"count":12,"type":"VEC3"},{"bufferView":1,"byteOffset":1776,"componentType":5126,"count":4,"type":"VEC3"},{"bufferView":1,"byteOffset":1824,"componentType":5126,"count":4,"type":"VEC3"},{"bufferView":1,"byteOffset":1872,"componentType":5126,"count":8,"type":"VEC3"},{"bufferView":1,"byteOffset":1968,"componentType":5126,"count":8,"type":"VEC3"},{"bufferView":1,"byteOffset":2064,"componentType":5126,"count":4,"type":"VEC3"},{"bufferView":1,"byteOffset":2112,"componentType":5126,"count":4,"type":"VEC3"},{"bufferView":1,"byteOffset":2160,"componentType":5126,"count":16,"type":"VEC3"},{"bufferView":1,"byteOffset":2352,"componentType":5126,"count":16,"type":"VEC3"},{"bufferView":1,"byteOffset":2544,"componentType":5126,"count":4,"type":"VEC3"},{"bufferView":1,"byteOffset":2592,"componentType":5126,"count":4,"type":"VEC3"},{"bufferView":1,"byteOffset":2640,"componentType":5126,"count":16,"type":"VEC3"},{"bufferView":1,"byteOffset":2832,"componentType":5126,"count":16,"type":"VEC3"},{"bufferView":1,"byteOffset":3024,"componentType":5126,"count":4,"type":"VEC3"},{"bufferView":1,"byteOffset":3072,"componentType":5126,"count":4,"type":"VEC3"},{"bufferView":1,"byteOffset":3120,"componentType":5126,"count":8,"type":"VEC3"},{"bufferView":1,"byteOffset":3216,"componentType":5126,"count":102,"type":"VEC3"},{"bufferView":1,"byteOffset":4440,"componentType":5126,"count":4,"type":"VEC3"},{"bufferView":1,"byteOffset":4488,"componentType":5126,"count":30,"type":"VEC3"},{"bufferView":1,"byteOffset":4848,"componentType":5126,"count":4,"type":"VEC3"},{"bufferView":1,"byteOffset":4896,"componentType":5126,"count":4,"type":"VEC3"},{"bufferView":1,"byteOffset":4944,"componentType":5126,"count":54,"type":"VEC3"},{"bufferView":1,"byteOffset":5592,"componentType":5126,"count":8,"type":"VEC3"},{"bufferView":1,"byteOffset":5688,"componentType":5126,"count":4,"type":"VEC3"},{"bufferView":1,"byteOffset":5736,"componentType":5126,"count":4,"type":"VEC3"},{"bufferView":1,"byteOffset":5784,"componentType":5126,"count":4,"type":"VEC3"},{"bufferView":1,"byteOffset":5832,"componentType":5126,"count":4,"type":"VEC3"},{"bufferView":1,"byteOffset":5880,"componentType":5126,"count":4,"type":"VEC3"},{"bufferView":2,"byteOffset":0,"componentType":5123,"count":222,"type":"SCALAR"},{"bufferView":2,"byteOffset":444,"componentType":5123,"count":138,"type":"SCALAR"},{"bufferView":2,"byteOffset":720,"componentType":5123,"count":30,"type":"SCALAR"},{"bufferView":2,"byteOffset":780,"componentType":5123,"count":30,"type":"SCALAR"},{"bufferView":2,"byteOffset":840,"componentType":5123,"count":6,"type":"SCALAR"},{"bufferView":2,"byteOffset":852,"componentType":5123,"count":6,"type":"SCALAR"},{"bufferView":2,"byteOffset":864,"componentType":5123,"count":18,"type":"SCALAR"},{"bufferView":2,"byteOffset":900,"componentType":5123,"count":18,"type":"SCALAR"},{"bufferView":2,"byteOffset":936,"componentType":5123,"count":6,"type":"SCALAR"},{"bufferView":2,"byteOffset":948,"componentType":5123,"count":6,"type":"SCALAR"},{"bufferView":2,"byteOffset":960,"componentType":5123,"count":42,"type":"SCALAR"},{"bufferView":2,"byteOffset":1044,"componentType":5123,"count":42,"type":"SCALAR"},{"bufferView":2,"byteOffset":1128,"componentType":5123,"count":6,"type":"SCALAR"},{"bufferView":2,"byteOffset":1140,"componentType":5123,"count":6,"type":"SCALAR"},{"bufferView":2,"byteOffset":1152,"componentType":5123,"count":42,"type":"SCALAR"},{"bufferView":2,"byteOffset":1236,"componentType":5123,"count":42,"type":"SCALAR"},{"bufferView":2,"byteOffset":1320,"componentType":5123,"count":6,"type":"SCALAR"},{"bufferView":2,"byteOffset":1332,"componentType":5123,"count":6,"type":"SCALAR"},{"bufferView":2,"byteOffset":1344,"componentType":5123,"count":24,"type":"SCALAR"},{"bufferView":2,"byteOffset":1392,"componentType":5123,"count":306,"type":"SCALAR"},{"bufferView":2,"byteOffset":2004,"componentType":5123,"count":6,"type":"SCALAR"},{"bufferView":2,"byteOffset":2016,"componentType":5123,"count":90,"type":"SCALAR"},{"bufferView":2,"byteOffset":2196,"componentType":5123,"count":6,"type":"SCALAR"},{"bufferView":2,"byteOffset":2208,"componentType":5123,"count":6,"type":"SCALAR"},{"bufferView":2,"byteOffset":2220,"componentType":5123,"count":156,"type":"SCALAR"},{"bufferView":2,"byteOffset":2532,"componentType":5123,"count":24,"type":"SCALAR"},{"bufferView":2,"byteOffset":2580,"componentType":5123,"count":6,"type":"SCALAR"},{"bufferView":2,"byteOffset":2592,"componentType":5123,"count":6,"type":"SCALAR"},{"bufferView":2,"byteOffset":2604,"componentType":5123,"count":6,"type":"SCALAR"},{"bufferView":2,"byteOffset":2616,"componentType":5123,"count":6,"type":"SCALAR"},{"bufferView":2,"byteOffset":2628,"componentType":5123,"count":6,"type":"SCALAR"}],"asset":{"generator":"Open CASCADE Technology 7.8 [dev.opencascade.org]","version":"2.0"},"bufferViews":[{"buffer":0,"byteLength":5928,"byteOffset":0,"byteStride":12,"target":34962},{"buffer":0,"byteLength":5928,"byteOffset":5928,"byteStride":12,"target":34962},{"buffer":0,"byteLength":2640,"byteOffset":11856,"target":34963}],"buffers":[{"byteLength":14496,"uri":"One Gummiaufsatz Druckdatei.bin"}],"materials":[{"name":"mat_0","pbrMetallicRoughness":{"baseColorFactor":[0.41788509488105774,0.4620770215988159,0.5088813304901123,1.0]},"doubleSided":true}],"meshes":[{"name":"Fillet003","primitives":[{"attributes":{"NORMAL":31,"POSITION":0},"indices":62,"material":0,"mode":4},{"attributes":{"NORMAL":32,"POSITION":1},"indices":63,"material":0,"mode":4},{"attributes":{"NORMAL":33,"POSITION":2},"indices":64,"material":0,"mode":4},{"attributes":{"NORMAL":34,"POSITION":3},"indices":65,"material":0,"mode":4},{"attributes":{"NORMAL":35,"POSITION":4},"indices":66,"material":0,"mode":4},{"attributes":{"NORMAL":36,"POSITION":5},"indices":67,"material":0,"mode":4},{"attributes":{"NORMAL":37,"POSITION":6},"indices":68,"material":0,"mode":4},{"attributes":{"NORMAL":38,"POSITION":7},"indices":69,"material":0,"mode":4},{"attributes":{"NORMAL":39,"POSITION":8},"indices":70,"material":0,"mode":4},{"attributes":{"NORMAL":40,"POSITION":9},"indices":71,"material":0,"mode":4},{"attributes":{"NORMAL":41,"POSITION":10},"indices":72,"material":0,"mode":4},{"attributes":{"NORMAL":42,"POSITION":11},"indices":73,"material":0,"mode":4},{"attributes":{"NORMAL":43,"POSITION":12},"indices":74,"material":0,"mode":4},{"attributes":{"NORMAL":44,"POSITION":13},"indices":75,"material":0,"mode":4},{"attributes":{"NORMAL":45,"POSITION":14},"indices":76,"material":0,"mode":4},{"attributes":{"NORMAL":46,"POSITION":15},"indices":77,"material":0,"mode":4},{"attributes":{"NORMAL":47,"POSITION":16},"indices":78,"material":0,"mode":4},{"attributes":{"NORMAL":48,"POSITION":17},"indices":79,"material":0,"mode":4},{"attributes":{"NORMAL":49,"POSITION":18},"indices":80,"material":0,"mode":4},{"attributes":{"NORMAL":50,"POSITION":19},"indices":81,"material":0,"mode":4},{"attributes":{"NORMAL":51,"POSITION":20},"indices":82,"material":0,"mode":4},{"attributes":{"NORMAL":52,"POSITION":21},"indices":83,"material":0,"mode":4},{"attributes":{"NORMAL":53,"POSITION":22},"indices":84,"material":0,"mode":4},{"attributes":{"NORMAL":54,"POSITION":23},"indices":85,"material":0,"mode":4},{"attributes":{"NORMAL":55,"POSITION":24},"indices":86,"material":0,"mode":4},{"attributes":{"NORMAL":56,"POSITION":25},"indices":87,"material":0,"mode":4},{"attributes":{"NORMAL":57,"POSITION":26},"indices":88,"material":0,"mode":4},{"attributes":{"NORMAL":58,"POSITION":27},"indices":89,"material":0,"mode":4},{"attributes":{"NORMAL":59,"POSITION":28},"indices":90,"material":0,"mode":4},{"attributes":{"NORMAL":60,"POSITION":29},"indices":91,"material":0,"mode":4},{"attributes":{"NORMAL":61,"POSITION":30},"indices":92,"material":0,"mode":4}]}],"nodes":[{"mesh":0,"name":"Fillet003"}],"scene":0,"scenes":[{"nodes":[0]}]}