{"accessors":[{"bufferView":0,"byteOffset":0,"componentType":5126,"count":80,"max":[0.04275,0.0,0.042715329671834605],"min":[-0.042611374922737484,-0.0005,-0.042715329671834605],"type":"VEC3"},{"bufferView":0,"byteOffset":960,"componentType":5126,"count":189,"max":[0.04275,-0.0005,0.042715329671834605],"min":[-0.042611374922737484,-0.0005,-0.042715329671834605],"type":"VEC3"},{"bufferView":0,"byteOffset":3228,"componentType":5126,"count":189,"max":[0.04275,0.0,0.042715329671834605],"min":[-0.042611374922737484,0.0,-0.042715329671834605],"type":"VEC3"},{"bufferView":0,"byteOffset":5496,"componentType":5126,"count":20,"max":[0.03710459029777594,0.0,0.037104047303080846],"min":[0.00041409872601026634,-0.0005,0.0003621917425198541],"type":"VEC3"},{"bufferView":0,"byteOffset":5736,"componentType":5126,"count":4,"max":[0.03710459029777594,0.0,0.0023491461741214368],"min":[0.027662108056056366,-0.0005,0.0003621917425198541],"type":"VEC3"},{"bufferView":0,"byteOffset":5784,"componentType":5126,"count":4,"max":[0.0023022557622821454,0.0,0.037104047303080846],"min":[0.00041409872601026634,-0.0005,0.027666050102198646],"type":"VEC3"},{"bufferView":0,"byteOffset":5832,"componentType":5126,"count":10,"max":[0.027662108056056366,0.0,0.019125656228314768],"min":[0.020122623678055843,-0.0005,0.0023491461741214368],"type":"VEC3"},{"bufferView":0,"byteOffset":5952,"componentType":5126,"count":10,"max":[0.019115768516890272,0.0,0.027666050102198646],"min":[0.0023022557622821454,-0.0005,0.020132016885076508],"type":"VEC3"},{"bufferView":0,"byteOffset":6072,"componentType":5126,"count":4,"max":[0.021231707,0.0,0.021221432000000002],"min":[0.020122623678055843,-0.0005,0.019125656228314768],"type":"VEC3"},{"bufferView":0,"byteOffset":6120,"componentType":5126,"count":4,"max":[0.021231707,0.0,0.021221432000000002],"min":[0.019115768516890272,-0.0005,0.020132016885076508],"type":"VEC3"},{"bufferView":0,"byteOffset":6168,"componentType":5126,"count":4,"max":[0.013497843677144603,0.0,0.017239564063894902],"min":[0.005238866,-0.0005,0.012987335000000001],"type":"VEC3"},{"bufferView":0,"byteOffset":6216,"componentType":5126,"count":4,"max":[0.005238866,0.0,0.021611322405102752],"min":[0.003513559014514632,-0.0005,0.012987335000000001],"type":"VEC3"},{"bufferView":0,"byteOffset":6264,"componentType":5126,"count":8,"max":[0.013497843677144603,0.0,0.021611322405102752],"min":[0.003513559014514632,-0.0005,0.017239564063894902],"type":"VEC3"},{"bufferView":0,"byteOffset":6360,"componentType":5126,"count":4,"max":[0.02159268810446405,0.0,0.005457693999999999],"min":[0.012889546,-0.0005,0.003626316791058085],"type":"VEC3"},{"bufferView":0,"byteOffset":6408,"componentType":5126,"count":4,"max":[0.017182674228494108,0.0,0.01357019010195599],"min":[0.012889546,-0.0005,0.005457693999999999],"type":"VEC3"},{"bufferView":0,"byteOffset":6456,"componentType":5126,"count":8,"max":[0.02159268810446405,0.0,0.01357019010195599],"min":[0.017182674228494108,-0.0005,0.003626316791058085],"type":"VEC3"},{"bufferView":0,"byteOffset":6552,"componentType":5126,"count":54,"max":[0.0075,0.0,0.007445316555735407],"min":[-0.0075,-0.0005,-0.007445316555735404],"type":"VEC3"},{"bufferView":0,"byteOffset":7200,"componentType":5126,"count":20,"max":[-0.00039671981087542553,0.0,0.03710423718951552],"min":[-0.03710466566735823,-0.0005,0.0003543864242931703],"type":"VEC3"},{"bufferView":0,"byteOffset":7440,"componentType":5126,"count":4,"max":[-0.00039671981087542553,0.0,0.03710423718951552],"min":[-0.0023754042830377666,-0.0005,0.027659865587968183],"type":"VEC3"},{"bufferView":0,"byteOffset":7488,"componentType":5126,"count":4,"max":[-0.027668565107875107,0.0,0.0022718306987125534],"min":[-0.03710466566735823,-0.0005,0.0003543864242931703],"type":"VEC3"},{"bufferView":0,"byteOffset":7536,"componentType":5126,"count":10,"max":[-0.0023754042830377666,0.0,0.027659865587968183],"min":[-0.01912977783671937,-0.0005,0.020118705469540202],"type":"VEC3"},{"bufferView":0,"byteOffset":7656,"componentType":5126,"count":10,"max":[-0.02013026500222274,0.0,0.019117613365496267],"min":[-0.027668565107875107,-0.0005,0.0022718306987125534],"type":"VEC3"},{"bufferView":0,"byteOffset":7776,"componentType":5126,"count":4,"max":[-0.01912977783671937,0.0,0.021221707999999995],"min":[-0.021212765,-0.0005,0.020118705469540202],"type":"VEC3"},{"bufferView":0,"byteOffset":7824,"componentType":5126,"count":4,"max":[-0.02013026500222274,0.0,0.021221707999999995],"min":[-0.021212765,-0.0005,0.019117613365496267],"type":"VEC3"},{"bufferView":0,"byteOffset":7872,"componentType":5126,"count":4,"max":[-0.0036472744939346127,0.0,0.021589157969028428],"min":[-0.005470704000000002,-0.0005,0.012885827],"type":"VEC3"},{"bufferView":0,"byteOffset":7920,"componentType":5126,"count":4,"max":[-0.005470704000000002,0.0,0.017177924757822073],"min":[-0.013576201753818224,-0.0005,0.012885827],"type":"VEC3"},{"bufferView":0,"byteOffset":7968,"componentType":5126,"count":8,"max":[-0.0036472744939346127,0.0,0.021589157969028428],"min":[-0.013576201753818224,-0.0005,0.017177924757822073],"type":"VEC3"},{"bufferView":0,"byteOffset":8064,"componentType":5126,"count":4,"max":[-0.012997331000000003,0.0,0.013498243808484496],"min":[-0.017239250770624416,-0.0005,0.00525307],"type":"VEC3"},{"bufferView":0,"byteOffset":8112,"componentType":5126,"count":4,"max":[-0.012997331000000003,0.0,0.00525307],"min":[-0.021613148296587326,-0.0005,0.0035023097743484303],"type":"VEC3"},{"bufferView":0,"byteOffset":8160,"componentType":5126,"count":8,"max":[-0.017239250770624416,0.0,0.013498243808484496],"min":[-0.021613148296587326,-0.0005,0.0035023097743484303],"type":"VEC3"},{"bufferView":0,"byteOffset":8256,"componentType":5126,"count":4,"max":[0.0172415143213416,0.0,-0.005228499000000001],"min":[0.012982446999999998,-0.0005,-0.01349535242047244],"type":"VEC3"},{"bufferView":0,"byteOffset":8304,"componentType":5126,"count":4,"max":[0.021617792300829313,0.0,-0.00347352977300816],"min":[0.012982446999999998,-0.0005,-0.005228499000000001],"type":"VEC3"},{"bufferView":0,"byteOffset":8352,"componentType":5126,"count":8,"max":[0.021617792300829313,0.0,-0.00347352977300816],"min":[0.0172415143213416,-0.0005,-0.01349535242047244],"type":"VEC3"},{"bufferView":0,"byteOffset":8448,"componentType":5126,"count":4,"max":[0.005470793,0.0,-0.012875249],"min":[0.003621262894557815,-0.0005,-0.021593536257275447],"type":"VEC3"},{"bufferView":0,"byteOffset":8496,"componentType":5126,"count":4,"max":[0.01358474663120424,0.0,-0.012875249],"min":[0.005470793,-0.0005,-0.01717116804447952],"type":"VEC3"},{"bufferView":0,"byteOffset":8544,"componentType":5126,"count":8,"max":[0.01358474663120424,0.0,-0.01717116804447952],"min":[0.003621262894557815,-0.0005,-0.021593536257275447],"type":"VEC3"},{"bufferView":0,"byteOffset":8640,"componentType":5126,"count":20,"max":[0.03710492535226226,0.0,-0.00032606537259875144],"min":[0.0003306272917087514,-0.0005,-0.037104884983222036],"type":"VEC3"},{"bufferView":0,"byteOffset":8880,"componentType":5126,"count":4,"max":[0.002333573734310246,0.0,-0.02766342609798831],"min":[0.0003306272917087514,-0.0005,-0.037104884983222036],"type":"VEC3"},{"bufferView":0,"byteOffset":8928,"componentType":5126,"count":4,"max":[0.03710492535226226,0.0,-0.00032606537259875144],"min":[0.027670888589830286,-0.0005,-0.002243353405399983],"type":"VEC3"},{"bufferView":0,"byteOffset":8976,"componentType":5126,"count":10,"max":[0.019137699946217133,0.0,-0.02011116979742572],"min":[0.002333573734310246,-0.0005,-0.02766342609798831],"type":"VEC3"},{"bufferView":0,"byteOffset":9096,"componentType":5126,"count":10,"max":[0.027670888589830286,0.0,-0.002243353405399983],"min":[0.02013533917046011,-0.0005,-0.019112269000379555],"type":"VEC3"},{"bufferView":0,"byteOffset":9216,"componentType":5126,"count":4,"max":[0.021217197,0.0,-0.02011116979742572],"min":[0.019137699946217133,-0.0005,-0.021212156000000003],"type":"VEC3"},{"bufferView":0,"byteOffset":9264,"componentType":5126,"count":4,"max":[0.021217197,0.0,-0.019112269000379555],"min":[0.02013533917046011,-0.0005,-0.021212156000000003],"type":"VEC3"},{"bufferView":0,"byteOffset":9312,"componentType":5126,"count":4,"max":[-0.012888835999999999,0.0,-0.003613484589916929],"min":[-0.021594839248399104,-0.0005,-0.005463091999999999],"type":"VEC3"},{"bufferView":0,"byteOffset":9360,"componentType":5126,"count":4,"max":[-0.012888835999999999,0.0,-0.005463091999999999],"min":[-0.01717862691015091,-0.0005,-0.013575313275486703],"type":"VEC3"},{"bufferView":0,"byteOffset":9408,"componentType":5126,"count":8,"max":[-0.01717862691015091,0.0,-0.003613484589916929],"min":[-0.021594839248399104,-0.0005,-0.013575313275486703],"type":"VEC3"},{"bufferView":0,"byteOffset":9504,"componentType":5126,"count":4,"max":[-0.005230741999999999,0.0,-0.01297752],"min":[-0.013501840688272511,-0.0005,-0.017236433827050198],"type":"VEC3"},{"bufferView":0,"byteOffset":9552,"componentType":5126,"count":4,"max":[-0.0034520396174319273,0.0,-0.01297752],"min":[-0.005230741999999999,-0.0005,-0.021621234366368897],"type":"VEC3"},{"bufferView":0,"byteOffset":9600,"componentType":5126,"count":8,"max":[-0.0034520396174319273,0.0,-0.017236433827050198],"min":[-0.013501840688272511,-0.0005,-0.021621234366368897],"type":"VEC3"},{"bufferView":0,"byteOffset":9696,"componentType":5126,"count":20,"max":[-0.00026570872178693927,0.0,-0.0003183221909102867],"min":[-0.03710499258869283,-0.0005,-0.03710540665319995],"type":"VEC3"},{"bufferView":0,"byteOffset":9936,"componentType":5126,"count":4,"max":[-0.027664229445247383,0.0,-0.0003183221909102867],"min":[-0.03710499258869283,-0.0005,-0.002324030777129261],"type":"VEC3"},{"bufferView":0,"byteOffset":9984,"componentType":5126,"count":4,"max":[-0.00026570872178693927,0.0,-0.027673849032612396],"min":[-0.0022065333835022153,-0.0005,-0.03710540665319995],"type":"VEC3"},{"bufferView":0,"byteOffset":10032,"componentType":5126,"count":10,"max":[-0.020116877407589003,0.0,-0.002324030777129261],"min":[-0.027664229445247383,-0.0005,-0.019131700217711028],"type":"VEC3"},{"bufferView":0,"byteOffset":10152,"componentType":5126,"count":10,"max":[-0.0022065333835022153,0.0,-0.020128848228698964],"min":[-0.01911910507420117,-0.0005,-0.027673849032612396],"type":"VEC3"},{"bufferView":0,"byteOffset":10272,"componentType":5126,"count":4,"max":[-0.020116877407589003,0.0,-0.019131700217711028],"min":[-0.021214817000000004,-0.0005,-0.021207962000000004],"type":"VEC3"},{"bufferView":0,"byteOffset":10320,"componentType":5126,"count":4,"max":[-0.01911910507420117,0.0,-0.020128848228698964],"min":[-0.021214817000000004,-0.0005,-0.021207962000000004],"type":"VEC3"},{"bufferView":1,"byteOffset":0,"componentType":5126,"count":80,"type":"VEC3"},{"bufferView":1,"byteOffset":960,"componentType":5126,"count":189,"type":"VEC3"},{"bufferView":1,"byteOffset":3228,"componentType":5126,"count":189,"type":"VEC3"},{"bufferView":1,"byteOffset":5496,"componentType":5126,"count":20,"type":"VEC3"},{"bufferView":1,"byteOffset":5736,"componentType":5126,"count":4,"type":"VEC3"},{"bufferView":1,"byteOffset":5784,"componentType":5126,"count":4,"type":"VEC3"},{"bufferView":1,"byteOffset":5832,"componentType":5126,"count":10,"type":"VEC3"},{"bufferView":1,"byteOffset":5952,"componentType":5126,"count":10,"type":"VEC3"},{"bufferView":1,"byteOffset":6072,"componentType":5126,"count":4,"type":"VEC3"},{"bufferView":1,"byteOffset":6120,"componentType":5126,"count":4,"type":"VEC3"},{"bufferView":1,"byteOffset":6168,"componentType":5126,"count":4,"type":"VEC3"},{"bufferView":1,"byteOffset":6216,"componentType":5126,"count":4,"type":"VEC3"},{"bufferView":1,"byteOffset":6264,"componentType":5126,"count":8,"type":"VEC3"},{"bufferView":1,"byteOffset":6360,"componentType":5126,"count":4,"type":"VEC3"},{"bufferView":1,"byteOffset":6408,"componentType":5126,"count":4,"type":"VEC3"},{"bufferView":1,"byteOffset":6456,"componentType":5126,"count":8,"type":"VEC3"},{"bufferView":1,"byteOffset":6552,"componentType":5126,"count":54,"type":"VEC3"},{"bufferView":1,"byteOffset":7200,"componentType":5126,"count":20,"type":"VEC3"},{"bufferView":1,"byteOffset":7440,"componentType":5126,"count":4,"type":"VEC3"},{"bufferView":1,"byteOffset":7488,"componentType":5126,"count":4,"type":"VEC3"},{"bufferView":1,"byteOffset":7536,"componentType":5126,"count":10,"type":"VEC3"},{"bufferView":1,"byteOffset":7656,"componentType":5126,"count":10,"type":"VEC3"},{"bufferView":1,"byteOffset":7776,"componentType":5126,"count":4,"type":"VEC3"},{"bufferView":1,"byteOffset":7824,"componentType":5126,"count":4,"type":"VEC3"},{"bufferView":1,"byteOffset":7872,"componentType":5126,"count":4,"type":"VEC3"},{"bufferView":1,"byteOffset":7920,"componentType":5126,"count":4,"type":"VEC3"},{"bufferView":1,"byteOffset":7968,"componentType":5126,"count":8,"type":"VEC3"},{"bufferView":1,"byteOffset":8064,"componentType":5126,"count":4,"type":"VEC3"},{"bufferView":1,"byteOffset":8112,"componentType":5126,"count":4,"type":"VEC3"},{"bufferView":1,"byteOffset":8160,"componentType":5126,"count":8,"type":"VEC3"},{"bufferView":1,"byteOffset":8256,"componentType":5126,"count":4,"type":"VEC3"},{"bufferView":1,"byteOffset":8304,"componentType":5126,"count":4,"type":"VEC3"},{"bufferView":1,"byteOffset":8352,"componentType":5126,"count":8,"type":"VEC3"},{"bufferView":1,"byteOffset":8448,"componentType":5126,"count":4,"type":"VEC3"},{"bufferView":1,"byteOffset":8496,"componentType":5126,"count":4,"type":"VEC3"},{"bufferView":1,"byteOffset":8544,"componentType":5126,"count":8,"type":"VEC3"},{"bufferView":1,"byteOffset":8640,"componentType":5126,"count":20,"type":"VEC3"},{"bufferView":1,"byteOffset":8880,"componentType":5126,"count":4,"type":"VEC3"},{"bufferView":1,"byteOffset":8928,"componentType":5126,"count":4,"type":"VEC3"},{"bufferView":1,"byteOffset":8976,"componentType":5126,"count":10,"type":"VEC3"},{"bufferView":1,"byteOffset":9096,"componentType":5126,"count":10,"type":"VEC3"},{"bufferView":1,"byteOffset":9216,"componentType":5126,"count":4,"type":"VEC3"},{"bufferView":1,"byteOffset":9264,"componentType":5126,"count":4,"type":"VEC3"},{"bufferView":1,"byteOffset":9312,"componentType":5126,"count":4,"type":"VEC3"},{"bufferView":1,"byteOffset":9360,"componentType":5126,"count":4,"type":"VEC3"},{"bufferView":1,"byteOffset":9408,"componentType":5126,"count":8,"type":"VEC3"},{"bufferView":1,"byteOffset":9504,"componentType":5126,"count":4,"type":"VEC3"},{"bufferView":1,"byteOffset":9552,"componentType":5126,"count":4,"type":"VEC3"},{"bufferView":1,"byteOffset":9600,"componentType":5126,"count":8,"type":"VEC3"},{"bufferView":1,"byteOffset":9696,"componentType":5126,"count":20,"type":"VEC3"},{"bufferView":1,"byteOffset":9936,"componentType":5126,"count":4,"type":"VEC3"},{"bufferView":1,"byteOffset":9984,"componentType":5126,"count":4,"type":"VEC3"},{"bufferView":1,"byteOffset":10032,"componentType":5126,"count":10,"type":"VEC3"},{"bufferView":1,"byteOffset":10152,"componentType":5126,"count":10,"type":"VEC3"},{"bufferView":1,"byteOffset":10272,"componentType":5126,"count":4,"type":"VEC3"},{"bufferView":1,"byteOffset":10320,"componentType":5126,"count":4,"type":"VEC3"},{"bufferView":2,"byteOffset":0,"componentType":5123,"count":234,"type":"SCALAR"},{"bufferView":2,"byteOffset":468,"componentType":5123,"count":639,"type":"SCALAR"},{"bufferView":2,"byteOffset":1748,"componentType":5123,"count":639,"type":"SCALAR"},{"bufferView":2,"byteOffset":3028,"componentType":5123,"count":54,"type":"SCALAR"},{"bufferView":2,"byteOffset":3136,"componentType":5123,"count":6,"type":"SCALAR"},{"bufferView":2,"byteOffset":3148,"componentType":5123,"count":6,"type":"SCALAR"},{"bufferView":2,"byteOffset":3160,"componentType":5123,"count":24,"type":"SCALAR"},{"bufferView":2,"byteOffset":3208,"componentType":5123,"count":24,"type":"SCALAR"},{"bufferView":2,"byteOffset":3256,"componentType":5123,"count":6,"type":"SCALAR"},{"bufferView":2,"byteOffset":3268,"componentType":5123,"count":6,"type":"SCALAR"},{"bufferView":2,"byteOffset":3280,"componentType":5123,"count":6,"type":"SCALAR"},{"bufferView":2,"byteOffset":3292,"componentType":5123,"count":6,"type":"SCALAR"},{"bufferView":2,"byteOffset":3304,"componentType":5123,"count":18,"type":"SCALAR"},{"bufferView":2,"byteOffset":3340,"componentType":5123,"count":6,"type":"SCALAR"},{"bufferView":2,"byteOffset":3352,"componentType":5123,"count":6,"type":"SCALAR"},{"bufferView":2,"byteOffset":3364,"componentType":5123,"count":18,"type":"SCALAR"},{"bufferView":2,"byteOffset":3400,"componentType":5123,"count":156,"type":"SCALAR"},{"bufferView":2,"byteOffset":3712,"componentType":5123,"count":54,"type":"SCALAR"},{"bufferView":2,"byteOffset":3820,"componentType":5123,"count":6,"type":"SCALAR"},{"bufferView":2,"byteOffset":3832,"componentType":5123,"count":6,"type":"SCALAR"},{"bufferView":2,"byteOffset":3844,"componentType":5123,"count":24,"type":"SCALAR"},{"bufferView":2,"byteOffset":3892,"componentType":5123,"count":24,"type":"SCALAR"},{"bufferView":2,"byteOffset":3940,"componentType":5123,"count":6,"type":"SCALAR"},{"bufferView":2,"byteOffset":3952,"componentType":5123,"count":6,"type":"SCALAR"},{"bufferView":2,"byteOffset":3964,"componentType":5123,"count":6,"type":"SCALAR"},{"bufferView":2,"byteOffset":3976,"componentType":5123,"count":6,"type":"SCALAR"},{"bufferView":2,"byteOffset":3988,"componentType":5123,"count":18,"type":"SCALAR"},{"bufferView":2,"byteOffset":4024,"componentType":5123,"count":6,"type":"SCALAR"},{"bufferView":2,"byteOffset":4036,"componentType":5123,"count":6,"type":"SCALAR"},{"bufferView":2,"byteOffset":4048,"componentType":5123,"count":18,"type":"SCALAR"},{"bufferView":2,"byteOffset":4084,"componentType":5123,"count":6,"type":"SCALAR"},{"bufferView":2,"byteOffset":4096,"componentType":5123,"count":6,"type":"SCALAR"},{"bufferView":2,"byteOffset":4108,"componentType":5123,"count":18,"type":"SCALAR"},{"bufferView":2,"byteOffset":4144,"componentType":5123,"count":6,"type":"SCALAR"},{"bufferView":2,"byteOffset":4156,"componentType":5123,"count":6,"type":"SCALAR"},{"bufferView":2,"byteOffset":4168,"componentType":5123,"count":18,"type":"SCALAR"},{"bufferView":2,"byteOffset":4204,"componentType":5123,"count":54,"type":"SCALAR"},{"bufferView":2,"byteOffset":4312,"componentType":5123,"count":6,"type":"SCALAR"},{"bufferView":2,"byteOffset":4324,"componentType":5123,"count":6,"type":"SCALAR"},{"bufferView":2,"byteOffset":4336,"componentType":5123,"count":24,"type":"SCALAR"},{"bufferView":2,"byteOffset":4384,"componentType":5123,"count":24,"type":"SCALAR"},{"bufferView":2,"byteOffset":4432,"componentType":5123,"count":6,"type":"SCALAR"},{"bufferView":2,"byteOffset":4444,"componentType":5123,"count":6,"type":"SCALAR"},{"bufferView":2,"byteOffset":4456,"componentType":5123,"count":6,"type":"SCALAR"},{"bufferView":2,"byteOffset":4468,"componentType":5123,"count":6,"type":"SCALAR"},{"bufferView":2,"byteOffset":4480,"componentType":5123,"count":18,"type":"SCALAR"},{"bufferView":2,"byteOffset":4516,"componentType":5123,"count":6,"type":"SCALAR"},{"bufferView":2,"byteOffset":4528,"componentType":5123,"count":6,"type":"SCALAR"},{"bufferView":2,"byteOffset":4540,"componentType":5123,"count":18,"type":"SCALAR"},{"bufferView":2,"byteOffset":4576,"componentType":5123,"count":54,"type":"SCALAR"},{"bufferView":2,"byteOffset":4684,"componentType":5123,"count":6,"type":"SCALAR"},{"bufferView":2,"byteOffset":4696,"componentType":5123,"count":6,"type":"SCALAR"},{"bufferView":2,"byteOffset":4708,"componentType":5123,"count":24,"type":"SCALAR"},{"bufferView":2,"byteOffset":4756,"componentType":5123,"count":24,"type":"SCALAR"},{"bufferView":2,"byteOffset":4804,"componentType":5123,"count":6,"type":"SCALAR"},{"bufferView":2,"byteOffset":4816,"componentType":5123,"count":6,"type":"SCALAR"}],"asset":{"generator":"Open CASCADE Technology 7.8 [dev.opencascade.org]","version":"2.0"},"bufferViews":[{"buffer":0,"byteLength":10368,"byteOffset":0,"byteStride":12,"target":34962},{"buffer":0,"byteLength":10368,"byteOffset":10368,"byteStride":12,"target":34962},{"buffer":0,"byteLength":4828,"byteOffset":20736,"target":34963}],"buffers":[{"byteLength":25564,"uri":"One Windrose Druckdatei.bin"}],"materials":[{"name":"mat_0","pbrMetallicRoughness":{"baseColorFactor":[0.4178845286369324,0.4620771110057831,0.508880615234375,1.0]},"doubleSided":true}],"meshes":[{"name":"Pocket","primitives":[{"attributes":{"NORMAL":56,"POSITION":0},"indices":112,"material":0,"mode":4},{"attributes":{"NORMAL":57,"POSITION":1},"indices":113,"material":0,"mode":4},{"attributes":{"NORMAL":58,"POSITION":2},"indices":114,"material":0,"mode":4},{"attributes":{"NORMAL":59,"POSITION":3},"indices":115,"material":0,"mode":4},{"attributes":{"NORMAL":60,"POSITION":4},"indices":116,"material":0,"mode":4},{"attributes":{"NORMAL":61,"POSITION":5},"indices":117,"material":0,"mode":4},{"attributes":{"NORMAL":62,"POSITION":6},"indices":118,"material":0,"mode":4},{"attributes":{"NORMAL":63,"POSITION":7},"indices":119,"material":0,"mode":4},{"attributes":{"NORMAL":64,"POSITION":8},"indices":120,"material":0,"mode":4},{"attributes":{"NORMAL":65,"POSITION":9},"indices":121,"material":0,"mode":4},{"attributes":{"NORMAL":66,"POSITION":10},"indices":122,"material":0,"mode":4},{"attributes":{"NORMAL":67,"POSITION":11},"indices":123,"material":0,"mode":4},{"attributes":{"NORMAL":68,"POSITION":12},"indices":124,"material":0,"mode":4},{"attributes":{"NORMAL":69,"POSITION":13},"indices":125,"material":0,"mode":4},{"attributes":{"NORMAL":70,"POSITION":14},"indices":126,"material":0,"mode":4},{"attributes":{"NORMAL":71,"POSITION":15},"indices":127,"material":0,"mode":4},{"attributes":{"NORMAL":72,"POSITION":16},"indices":128,"material":0,"mode":4},{"attributes":{"NORMAL":73,"POSITION":17},"indices":129,"material":0,"mode":4},{"attributes":{"NORMAL":74,"POSITION":18},"indices":130,"material":0,"mode":4},{"attributes":{"NORMAL":75,"POSITION":19},"indices":131,"material":0,"mode":4},{"attributes":{"NORMAL":76,"POSITION":20},"indices":132,"material":0,"mode":4},{"attributes":{"NORMAL":77,"POSITION":21},"indices":133,"material":0,"mode":4},{"attributes":{"NORMAL":78,"POSITION":22},"indices":134,"material":0,"mode":4},{"attributes":{"NORMAL":79,"POSITION":23},"indices":135,"material":0,"mode":4},{"attributes":{"NORMAL":80,"POSITION":24},"indices":136,"material":0,"mode":4},{"attributes":{"NORMAL":81,"POSITION":25},"indices":137,"material":0,"mode":4},{"attributes":{"NORMAL":82,"POSITION":26},"indices":138,"material":0,"mode":4},{"attributes":{"NORMAL":83,"POSITION":27},"indices":139,"material":0,"mode":4},{"attributes":{"NORMAL":84,"POSITION":28},"indices":140,"material":0,"mode":4},{"attributes":{"NORMAL":85,"POSITION":29},"indices":141,"material":0,"mode":4},{"attributes":{"NORMAL":86,"POSITION":30},"indices":142,"material":0,"mode":4},{"attributes":{"NORMAL":87,"POSITION":31},"indices":143,"material":0,"mode":4},{"attributes":{"NORMAL":88,"POSITION":32},"indices":144,"material":0,"mode":4},{"attributes":{"NORMAL":89,"POSITION":33},"indices":145,"material":0,"mode":4},{"attributes":{"NORMAL":90,"POSITION":34},"indices":146,"material":0,"mode":4},{"attributes":{"NORMAL":91,"POSITION":35},"indices":147,"material":0,"mode":4},{"attributes":{"NORMAL":92,"POSITION":36},"indices":148,"material":0,"mode":4},{"attributes":{"NORMAL":93,"POSITION":37},"indices":149,"material":0,"mode":4},{"attributes":{"NORMAL":94,"POSITION":38},"indices":150,"material":0,"mode":4},{"attributes":{"NORMAL":95,"POSITION":39},"indices":151,"material":0,"mode":4},{"attributes":{"NORMAL":96,"POSITION":40},"indices":152,"material":0,"mode":4},{"attributes":{"NORMAL":97,"POSITION":41},"indices":153,"material":0,"mode":4},{"attributes":{"NORMAL":98,"POSITION":42},"indices":154,"material":0,"mode":4},{"attributes":{"NORMAL":99,"POSITION":43},"indices":155,"material":0,"mode":4},{"attributes":{"NORMAL":100,"POSITION":44},"indices":156,"material":0,"mode":4},{"attributes":{"NORMAL":101,"POSITION":45},"indices":157,"material":0,"mode":4},{"attributes":{"NORMAL":102,"POSITION":46},"indices":158,"material":0,"mode":4},{"attributes":{"NORMAL":103,"POSITION":47},"indices":159,"material":0,"mode":4},{"attributes":{"NORMAL":104,"POSITION":48},"indices":160,"material":0,"mode":4},{"attributes":{"NORMAL":105,"POSITION":49},"indices":161,"material":0,"mode":4},{"attributes":{"NORMAL":106,"POSITION":50},"indices":162,"material":0,"mode":4},{"attributes":{"NORMAL":107,"POSITION":51},"indices":163,"material":0,"mode":4},{"attributes":{"NORMAL":108,"POSITION":52},"indices":164,"material":0,"mode":4},{"attributes":{"NORMAL":109,"POSITION":53},"indices":165,"material":0,"mode":4},{"attributes":{"NORMAL":110,"POSITION":54},"indices":166,"material":0,"mode":4},{"attributes":{"NORMAL":111,"POSITION":55},"indices":167,"material":0,"mode":4}]}],"nodes":[{"mesh":0,"name":"Pocket"}],"scene":0,"scenes":[{"nodes":[0]}]}