{
  "asset": { "version": "2.0" },
  "scenes": [{ "nodes": [0] }],
  "nodes": [{ "mesh": 0 }],
  "meshes": [{
    "primitives": [{
      "attributes": { "POSITION": 0 },
      "indices": 1,
      "material": 0
    }]
  }],
  "materials": [{ "pbrMetallicRoughness": { "baseColorFactor": [1,0,0,1] } }],
  "accessors": [
    { "bufferView": 0, "componentType": 5126, "count": 3, "type": "VEC3", "max": [1,1,1], "min": [-1,-1,-1] },
    { "bufferView": 1, "componentType": 5123, "count": 3, "type": "SCALAR" }
  ],
  "bufferViews": [
    { "buffer": 0, "byteLength": 36, "byteOffset": 0 },
    { "buffer": 0, "byteLength": 6, "byteOffset": 36 }
  ],
  "buffers": [{ "byteLength": 42, "uri": "data:application/octet-stream;base64," }]
}
